<?xml version="1.0" encoding="utf-8"?>
<!-- Generator: Moho 12.2 build 21774 -->
<!DOCTYPE svg PUBLIC "-//W3C//DTD SVG 1.1//EN" "http://www.w3.org/Graphics/SVG/1.1/DTD/svg11.dtd">
<svg version="1.1" id="Frame_0" xmlns="http://www.w3.org/2000/svg" xmlns:xlink="http://www.w3.org/1999/xlink" width="500px" height="500px">
<g id="Layer_6">
<path fill="#1a1818" fill-rule="evenodd" stroke="#c48a3e" stroke-width="0" stroke-linecap="round" stroke-linejoin="round" d="M 251.491 5.384 C 386.090 5.871 494.278 114.847 493.790 249.445 C 493.303 384.044 384.328 492.232 249.729 491.744 C 115.131 491.257 6.943 382.282 7.430 247.683 C 7.918 113.085 116.892 4.896 251.491 5.384 Z"/>
<path fill="#ebb533" d="M 319.139 296.327 C 339.580 309.391 336.911 335.435 320.475 345.134 L 317.722 340.228 C 332.001 332.689 334.498 311.805 316.199 301.123 L 319.139 296.327 Z"/>
<path fill="none" stroke="#ebb533" stroke-width="1" stroke-linecap="butt" stroke-linejoin="round" d="M 319.139 296.327 L 316.199 301.123 "/>
<path fill="#ebb533" d="M 320.475 345.134 C 278.825 368.340 244.292 358.957 234.275 341.729 L 239.189 338.991 C 247.210 354.147 277.779 362.812 317.722 340.228 L 320.475 345.134 Z"/>
<path fill="none" stroke="#ebb533" stroke-width="1" stroke-linecap="butt" stroke-linejoin="round" d="M 320.475 345.134 L 317.722 340.228 "/>
<path fill="#ebb533" d="M 234.275 341.729 C 231.970 337.243 234.816 328.452 237.955 325.098 L 237.955 325.098 C 234.816 328.452 237.524 336.349 239.189 338.991 L 234.275 341.729 Z"/>
<path fill="none" stroke="#ebb533" stroke-width="1" stroke-linecap="butt" stroke-linejoin="round" d="M 234.275 341.729 L 239.189 338.991 "/>
<path fill="#ebb533" d="M 322.569 340.075 C 338.710 353.278 333.329 375.470 318.296 382.030 L 316.175 376.820 C 328.815 372.113 333.359 355.016 319.109 344.510 L 322.569 340.075 Z"/>
<path fill="none" stroke="#ebb533" stroke-width="1" stroke-linecap="butt" stroke-linejoin="round" d="M 322.569 340.075 L 319.109 344.510 "/>
<path fill="#ebb533" d="M 318.296 382.030 C 276.954 398.702 242.626 385.858 238.631 367.046 L 244.171 366.070 C 246.216 381.527 276.625 393.086 316.175 376.820 L 318.296 382.030 Z"/>
<path fill="none" stroke="#ebb533" stroke-width="1" stroke-linecap="butt" stroke-linejoin="round" d="M 318.296 382.030 L 316.175 376.820 "/>
<path fill="#ebb533" d="M 238.631 367.046 C 238.218 364.668 240.676 359.996 242.482 358.248 L 242.482 358.248 C 240.676 359.996 243.810 364.050 244.171 366.070 L 238.631 367.046 Z"/>
<path fill="none" stroke="#ebb533" stroke-width="1" stroke-linecap="butt" stroke-linejoin="round" d="M 238.631 367.046 L 244.171 366.070 "/>
<path fill="#ebb533" d="M 186.710 349.269 C 186.712 349.270 196.133 358.676 210.487 359.430 L 210.091 365.042 C 193.422 363.606 186.712 349.270 186.710 349.269 L 186.710 349.269 Z"/>
<path fill="#ebb533" d="M 210.487 359.430 C 230.280 361.122 241.900 346.523 243.016 345.705 L 245.130 350.919 C 246.239 350.104 232.424 366.324 210.091 365.042 L 210.487 359.430 Z"/>
<path fill="none" stroke="#ebb533" stroke-width="1" stroke-linecap="butt" stroke-linejoin="round" d="M 210.487 359.430 L 210.091 365.042 "/>
<path fill="#ebb533" d="M 312.902 381.167 C 325.462 395.732 317.047 415.044 302.376 418.747 L 301.143 413.258 C 313.172 410.965 319.893 396.530 308.735 384.946 L 312.902 381.167 Z"/>
<path fill="none" stroke="#ebb533" stroke-width="1" stroke-linecap="butt" stroke-linejoin="round" d="M 312.902 381.167 L 308.735 384.946 "/>
<path fill="#ebb533" d="M 302.376 418.747 C 262.471 427.567 230.450 411.199 232.249 393.022 L 237.808 393.888 C 234.663 407.471 263.011 421.967 301.143 413.258 L 302.376 418.747 Z"/>
<path fill="none" stroke="#ebb533" stroke-width="1" stroke-linecap="butt" stroke-linejoin="round" d="M 302.376 418.747 L 301.143 413.258 "/>
<path fill="#ebb533" d="M 232.249 393.022 C 232.847 389.471 237.996 384.855 241.278 383.743 L 241.278 383.743 C 237.996 384.855 238.164 391.306 237.808 393.888 L 232.249 393.022 Z"/>
<path fill="none" stroke="#ebb533" stroke-width="1" stroke-linecap="butt" stroke-linejoin="round" d="M 232.249 393.022 L 237.808 393.888 "/>
<path fill="#ebb533" d="M 200.629 407.098 C 200.629 407.098 206.255 417.737 220.610 421.821 L 218.973 427.203 C 202.471 421.900 200.629 407.098 200.629 407.098 L 200.629 407.098 Z"/>
<path fill="#ebb533" d="M 220.610 421.821 C 247.201 430.296 255.693 414.418 257.500 413.117 L 258.720 418.608 C 260.519 417.309 248.440 435.784 218.973 427.203 L 220.610 421.821 Z"/>
<path fill="none" stroke="#ebb533" stroke-width="1" stroke-linecap="butt" stroke-linejoin="round" d="M 220.610 421.821 L 218.973 427.203 "/>
<path fill="#c8c8c8" fill-rule="evenodd" fill-opacity="0.000000" stroke="#ebb533" stroke-width="5" stroke-linecap="round" stroke-linejoin="round" d="M 277.061 53.746 C 277.060 53.745 265.562 41.714 265.561 41.713 C 265.557 41.715 240.727 34.366 221.158 57.552 C 204.207 77.637 213.439 97.650 213.438 97.654 C 213.439 97.655 227.993 107.515 227.994 107.516 C 227.998 107.514 248.760 115.223 268.438 92.408 C 286.492 71.475 277.060 53.750 277.061 53.746 Z"/>
<path fill="none" stroke="#ebb533" stroke-width="4" stroke-linecap="round" stroke-linejoin="round" d="M 264.298 51.585 C 264.297 51.588 269.006 65.590 255.100 80.799 C 239.226 98.161 222.662 93.831 222.659 93.833 "/>
<path fill="#ebb533" d="M 290.855 65.417 C 290.355 64.633 320.534 95.288 323.461 156.088 L 319.090 156.291 C 316.418 96.773 287.251 67.717 286.744 66.915 L 290.855 65.417 Z"/>
<path fill="#ebb533" d="M 323.461 156.088 C 325.941 211.415 299.971 240.534 299.969 240.543 L 299.969 240.543 C 299.971 240.534 321.698 210.344 319.090 156.291 L 323.461 156.088 Z"/>
<path fill="none" stroke="#ebb533" stroke-width="1" stroke-linecap="butt" stroke-linejoin="round" d="M 323.461 156.088 L 319.090 156.291 "/>
<path fill="none" stroke="#ebb533" stroke-width="5" stroke-linecap="round" stroke-linejoin="round" d="M 215.379 177.774 C 215.119 171.227 214.858 164.679 214.597 158.131 M 193.398 180.930 C 190.248 175.179 187.098 169.428 183.948 163.677 M 176.281 196.042 C 171.108 192.823 165.935 189.604 160.762 186.385 "/>
<path fill="#ebb533" d="M 238.748 116.205 C 238.093 115.467 260.647 131.744 268.615 171.809 L 264.322 172.652 C 256.796 133.820 235.561 119.036 234.899 118.287 L 238.748 116.205 Z"/>
<path fill="#ebb533" d="M 268.615 171.809 C 276.700 213.497 259.395 236.806 259.394 236.813 L 259.394 236.813 C 259.395 236.806 272.350 213.021 264.322 172.652 L 268.615 171.809 Z"/>
<path fill="none" stroke="#ebb533" stroke-width="1" stroke-linecap="butt" stroke-linejoin="round" d="M 268.615 171.809 L 264.322 172.652 "/>
<path fill="#ebb533" d="M 281.494 95.829 C 281.088 95.249 293.057 107.676 299.991 134.588 L 295.753 135.674 C 289.110 109.565 277.957 98.305 277.547 97.716 L 281.494 95.829 Z"/>
<path fill="#ebb533" d="M 299.991 134.588 C 308.445 167.784 300.319 187.606 300.319 187.611 L 300.319 187.611 C 300.319 187.606 304.074 167.987 295.753 135.674 L 299.991 134.588 Z"/>
<path fill="none" stroke="#ebb533" stroke-width="1" stroke-linecap="butt" stroke-linejoin="round" d="M 299.991 134.588 L 295.753 135.674 "/>
<path fill="#ebb533" d="M 263.346 112.961 C 262.927 112.482 270.152 118.783 276.223 133.015 L 272.195 134.724 C 266.474 121.152 260.083 115.807 259.662 115.323 L 263.346 112.961 Z"/>
<path fill="#ebb533" d="M 276.223 133.015 C 285.103 154.047 281.678 167.903 281.679 167.907 L 281.679 167.907 C 281.678 167.903 280.829 154.985 272.195 134.724 L 276.223 133.015 Z"/>
<path fill="none" stroke="#ebb533" stroke-width="1" stroke-linecap="butt" stroke-linejoin="round" d="M 276.223 133.015 L 272.195 134.724 "/>
<path fill="#ebb533" d="M 210.463 251.981 C 220.808 248.196 230.230 241.887 240.575 238.102 L 242.422 243.151 C 232.077 246.936 220.808 248.196 210.463 251.981 L 210.463 251.981 Z"/>
<path fill="none" stroke="#ebb533" stroke-width="5" stroke-linecap="round" stroke-linejoin="round" d="M 158.868 319.825 C 158.869 319.832 146.269 346.626 163.249 383.642 C 178.609 417.125 205.956 420.323 205.960 420.326 "/>
<path fill="none" stroke="#ebb533" stroke-width="5" stroke-linecap="round" stroke-linejoin="round" d="M 105.210 335.664 C 105.211 335.671 92.673 362.366 109.590 399.247 C 124.949 432.731 152.297 435.928 152.301 435.932 "/>
<path fill="#1a1818" fill-rule="evenodd" stroke="#ebb533" stroke-width="5" stroke-linecap="round" stroke-linejoin="round" d="M 146.968 406.708 C 149.701 404.208 154.726 404.273 158.574 408.478 C 162.422 412.684 162.041 417.695 159.308 420.195 C 156.576 422.695 151.550 422.631 147.703 418.425 C 143.855 414.220 144.236 409.209 146.968 406.708 Z"/>
<path fill="#ebb533" d="M 163.173 316.137 C 163.146 316.230 164.655 310.715 166.210 306.818 L 170.736 308.631 C 169.291 312.223 167.849 317.514 167.821 317.609 L 163.173 316.137 Z"/>
<path fill="#ebb533" d="M 166.210 306.818 C 176.744 280.792 189.150 277.771 195.721 248.976 L 200.470 250.079 C 193.344 280.258 180.564 283.822 170.736 308.631 L 166.210 306.818 Z"/>
<path fill="none" stroke="#ebb533" stroke-width="1" stroke-linecap="butt" stroke-linejoin="round" d="M 166.210 306.818 L 170.736 308.631 "/>
<path fill="#ebb533" d="M 195.721 248.976 C 200.367 231.674 175.287 212.223 195.250 197.503 L 197.897 201.597 C 180.075 211.305 204.656 229.356 200.470 250.079 L 195.721 248.976 Z"/>
<path fill="none" stroke="#ebb533" stroke-width="1" stroke-linecap="butt" stroke-linejoin="round" d="M 195.721 248.976 L 200.470 250.079 "/>
<path fill="#ebb533" d="M 195.250 197.503 C 215.987 184.805 240.253 204.235 244.035 233.695 L 239.195 234.287 C 235.990 206.602 215.305 189.633 197.897 201.597 L 195.250 197.503 Z"/>
<path fill="none" stroke="#ebb533" stroke-width="1" stroke-linecap="butt" stroke-linejoin="round" d="M 195.250 197.503 L 197.897 201.597 "/>
<path fill="#ebb533" d="M 244.035 233.695 C 246.045 252.443 232.563 264.796 238.849 269.779 L 235.256 273.075 C 227.944 263.234 241.485 250.717 239.195 234.287 L 244.035 233.695 Z"/>
<path fill="none" stroke="#ebb533" stroke-width="1" stroke-linecap="butt" stroke-linejoin="round" d="M 244.035 233.695 L 239.195 234.287 "/>
<path fill="#ebb533" d="M 238.703 269.633 C 238.481 270.238 244.135 269.245 244.749 269.188 L 245.130 274.049 C 244.913 274.058 238.335 275.111 235.402 273.221 L 238.703 269.633 Z"/>
<path fill="none" stroke="#ebb533" stroke-width="1" stroke-linecap="butt" stroke-linejoin="round" d="M 238.703 269.633 L 235.402 273.221 "/>
<path fill="#ebb533" d="M 244.749 269.188 C 246.396 269.081 280.928 261.393 280.945 261.389 L 281.977 266.154 C 281.987 266.152 247.420 273.848 245.130 274.049 L 244.749 269.188 Z"/>
<path fill="none" stroke="#ebb533" stroke-width="1" stroke-linecap="butt" stroke-linejoin="round" d="M 244.749 269.188 L 245.130 274.049 "/>
<path fill="#ebb533" d="M 281.858 261.366 C 280.966 261.386 303.413 256.872 314.417 267.427 L 310.937 270.842 C 302.588 261.677 281.963 266.158 281.064 266.177 L 281.858 261.366 Z"/>
<path fill="none" stroke="#ebb533" stroke-width="1" stroke-linecap="butt" stroke-linejoin="round" d="M 281.858 261.366 L 281.064 266.177 "/>
<path fill="#ebb533" d="M 314.417 267.427 C 328.437 282.183 322.355 301.126 308.005 307.944 L 305.980 303.509 C 318.607 298.007 323.714 283.394 310.937 270.842 L 314.417 267.427 Z"/>
<path fill="none" stroke="#ebb533" stroke-width="1" stroke-linecap="butt" stroke-linejoin="round" d="M 314.417 267.427 L 310.937 270.842 "/>
<path fill="#ebb533" d="M 308.005 307.944 C 268.157 326.111 234.766 328.209 228.145 306.565 L 232.857 305.315 C 236.882 323.816 266.821 321.422 305.980 303.509 L 308.005 307.944 Z"/>
<path fill="none" stroke="#ebb533" stroke-width="1" stroke-linecap="butt" stroke-linejoin="round" d="M 308.005 307.944 L 305.980 303.509 "/>
<path fill="#ebb533" d="M 228.145 306.565 C 223.474 283.738 266.767 273.610 284.958 276.990 L 284.958 276.990 C 266.767 273.610 226.718 287.378 232.857 305.315 L 228.145 306.565 Z"/>
<path fill="none" stroke="#ebb533" stroke-width="1" stroke-linecap="butt" stroke-linejoin="round" d="M 228.145 306.565 L 232.857 305.315 "/>
<path fill="none" stroke="#c48a3e" stroke-width="0" stroke-linecap="round" stroke-linejoin="round" d="M 52.247 352.353 C 52.259 352.349 167.681 318.914 167.681 318.914 M 72.876 112.541 C -13.359 234.649 52.249 352.329 52.247 352.353 M 246.861 24.629 C 246.813 24.672 134.341 25.508 72.876 112.541 M 404.417 89.065 C 332.375 16.925 246.883 24.630 246.861 24.629 M 472.719 259.952 C 472.708 259.813 482.302 167.057 404.417 89.065 M 397.342 416.099 C 473.851 345.880 472.692 260.082 472.719 259.952 M 247.227 474.304 C 247.595 474.273 326.297 481.302 397.342 416.099 M 193.386 466.127 C 219.420 473.727 247.102 474.315 247.227 474.304 M 133.748 439.327 C 133.759 439.325 162.129 457.002 193.386 466.127 M 209.082 416.779 C 209.075 416.781 134.004 439.092 133.748 439.327 "/>
<path fill="none" stroke="#c48a3e" stroke-width="0" stroke-linecap="round" stroke-linejoin="round" d="M 168.840 313.895 C 168.840 313.895 55.756 346.330 55.744 346.333 C 55.747 346.310 -6.459 232.721 77.000 115.136 C 137.013 30.586 246.260 29.630 246.307 29.588 C 246.328 29.590 329.358 22.255 399.626 92.292 C 475.733 168.148 466.960 258.447 466.972 258.583 C 466.946 258.711 468.376 342.872 393.576 412.060 C 324.727 475.743 248.210 469.340 247.852 469.369 C 247.729 469.379 220.457 468.251 194.659 460.902 C 169.454 453.722 146.128 440.571 146.119 440.573 C 146.335 440.363 211.620 421.530 211.627 421.528 "/>
<path fill="#ebb533" fill-rule="evenodd" stroke="#c8c8c8" stroke-width="0" stroke-linecap="round" stroke-linejoin="round" d="M 209.082 416.779 C 209.075 416.781 134.004 439.092 133.748 439.327 C 133.759 439.325 162.129 457.002 193.386 466.127 C 219.420 473.727 247.102 474.315 247.227 474.304 C 247.595 474.273 326.297 481.302 397.342 416.099 C 473.851 345.880 472.692 260.082 472.719 259.952 C 472.708 259.813 482.302 167.057 404.417 89.065 C 332.375 16.925 246.883 24.630 246.861 24.629 C 246.813 24.672 134.341 25.508 72.876 112.541 C -13.359 234.649 52.249 352.329 52.247 352.353 C 52.259 352.349 167.681 318.914 167.681 318.914 C 167.681 318.914 168.840 313.895 168.840 313.895 C 168.840 313.895 55.756 346.330 55.744 346.333 C 55.747 346.310 -6.459 232.721 77.000 115.136 C 137.013 30.586 246.260 29.630 246.307 29.588 C 246.328 29.590 329.358 22.255 399.626 92.292 C 475.733 168.148 466.960 258.447 466.972 258.583 C 466.946 258.711 468.376 342.872 393.576 412.060 C 324.727 475.743 248.210 469.340 247.852 469.369 C 247.729 469.379 220.457 468.251 194.659 460.902 C 169.454 453.722 146.128 440.571 146.119 440.573 C 146.335 440.363 211.620 421.530 211.627 421.528 C 211.626 421.528 209.083 416.779 209.082 416.779 Z"/>
</g>
</svg>
